<svg xmlns="http://www.w3.org/2000/svg" viewBox="0 0 64 64"><defs><style>.cls-1{fill:#f3f3f3;}.cls-2{fill:#50d9d7;}.cls-3{fill:#ffac00;}.cls-4{fill:#ea9807;}.cls-5{fill:#fdfdfd;}.cls-6{fill:#00bebd;}.cls-7{fill:#d9d9d9;}</style></defs><title>File ai</title><g id="File_ai" data-name="File ai"><path class="cls-1" d="M55,12V62a2,2,0,0,1-2,2H11a2,2,0,0,1-2-2V2a2,2,0,0,1,2-2H43Z"/><polygon class="cls-2" points="55 12 43 12 43 0 55 12"/><path class="cls-3" d="M7,37H57a2,2,0,0,1,2,2V55a2,2,0,0,1-2,2H5a0,0,0,0,1,0,0V39A2,2,0,0,1,7,37Z"/><polygon class="cls-4" points="5 57 9 61 9 57 5 57"/><path class="cls-5" d="M30.92,40.62a1,1,0,0,0-1.84,0l-5,12a1,1,0,0,0,1.84.76l1-2.4c.26,0-1.15,0,6.08,0,.12,0-.06-.35,1.08,2.38a1,1,0,0,0,1.84-.76ZM27.75,49,30,43.6,32.25,49Z"/><path class="cls-5" d="M38,45v8a1,1,0,0,0,2,0V45A1,1,0,0,0,38,45Z"/><path class="cls-5" d="M40,41a1,1,0,0,0-2,0A1,1,0,0,0,40,41Z"/><path class="cls-3" d="M33,25l-2,4H21l-2-4,7-10Z"/><rect class="cls-3" x="35" y="9" width="4" height="4" rx="1"/><rect class="cls-3" x="13" y="9" width="4" height="4" rx="1"/><rect class="cls-5" x="17" y="10" width="7" height="2"/><rect class="cls-5" x="28" y="10" width="7" height="2"/><path class="cls-6" d="M30.15,35h-8.3a1,1,0,0,1-1-.84l-.67-4a1,1,0,0,1,1-1.16h9.64a1,1,0,0,1,1,1.16l-.67,4A1,1,0,0,1,30.15,35Z"/><path class="cls-5" d="M35,21a9,9,0,0,0-18,0,1,1,0,0,1-2,0,11,11,0,0,1,22,0A1,1,0,0,1,35,21Z"/><rect class="cls-3" x="24" y="9" width="4" height="4" rx="1"/><rect class="cls-3" x="34" y="19" width="4" height="4" rx="1"/><rect class="cls-3" x="14" y="19" width="4" height="4" rx="1"/><polygon class="cls-4" points="27 16.43 27 23 25 23 25 16.43 26 15 27 16.43"/><circle class="cls-4" cx="26" cy="24" r="2"/><rect class="cls-7" x="45" y="20" width="8" height="2"/><rect class="cls-7" x="43" y="24" width="10" height="2"/><rect class="cls-7" x="41" y="28" width="12" height="2"/><circle class="cls-7" cx="14" cy="5" r="2"/></g></svg>